<svg width="16" height="17" viewBox="0 0 16 17" fill="none" xmlns="http://www.w3.org/2000/svg">
<g id="Icons/Icons Collection (Phosphor Icons)">
<path id="Vector" d="M14.3536 14.1462L11.2243 11.0175C12.1313 9.92856 12.5836 8.53186 12.487 7.11795C12.3905 5.70404 11.7526 4.38177 10.706 3.42622C9.65938 2.47067 8.28468 1.9554 6.86784 1.9876C5.451 2.0198 4.10112 2.59699 3.09901 3.5991C2.0969 4.60122 1.51971 5.9511 1.48751 7.36793C1.45531 8.78477 1.97058 10.1595 2.92613 11.2061C3.88168 12.2527 5.20395 12.8906 6.61786 12.9871C8.03177 13.0837 9.42846 12.6314 10.5174 11.7244L13.6461 14.8537C13.6926 14.9002 13.7478 14.937 13.8085 14.9622C13.8691 14.9873 13.9342 15.0003 13.9999 15.0003C14.0656 15.0003 14.1307 14.9873 14.1913 14.9622C14.252 14.937 14.3072 14.9002 14.3536 14.8537C14.4001 14.8073 14.437 14.7521 14.4621 14.6914C14.4872 14.6307 14.5002 14.5657 14.5002 14.5C14.5002 14.4343 14.4872 14.3692 14.4621 14.3085C14.437 14.2478 14.4001 14.1927 14.3536 14.1462ZM2.4999 7.49999C2.4999 6.60997 2.76382 5.73994 3.25829 4.99992C3.75275 4.2599 4.45556 3.68313 5.27782 3.34253C6.10009 3.00194 7.00489 2.91282 7.8778 3.08646C8.75072 3.26009 9.55254 3.68867 10.1819 4.31801C10.8112 4.94735 11.2398 5.74917 11.4134 6.62208C11.5871 7.495 11.498 8.3998 11.1574 9.22207C10.8168 10.0443 10.24 10.7471 9.49996 11.2416C8.75994 11.7361 7.88991 12 6.9999 12C5.80683 11.9987 4.66301 11.5241 3.81938 10.6805C2.97575 9.83688 2.50122 8.69306 2.4999 7.49999Z" fill="#201F24"/>
</g>
</svg>
